HIERARCHY
ROOT Hips
{
	OFFSET 0.00000 0.00000 0.00000
	CHANNELS 6 Xposition Yposition Zposition Zrotation Yrotation Xrotation 
	JOINT RightUpLegDummy
	{
		OFFSET 0 0 0
		CHANNELS 3 Zrotation Yrotation Xrotation
		JOINT RightUpLeg
		{
			OFFSET -3.52197 -3.41223 0.04002
			CHANNELS 3 Zrotation Yrotation Xrotation
			JOINT RightLeg
			{
				OFFSET 0.00006 -17.42390 1.60435
				CHANNELS 3 Zrotation Yrotation Xrotation
				JOINT RightFoot
				{
					OFFSET 0.06153 -16.50078 -1.63901
					CHANNELS 3 Zrotation Yrotation Xrotation
					JOINT RightToes
					{
						OFFSET 0.00298 -1.73825 3.34613
						CHANNELS 3 Zrotation Yrotation Xrotation
						End Site
						{
							OFFSET 0.00480 -0.05416 3.85043
						}
					}
				}
			}
		}
	}
	JOINT SpineDummy
	{
		OFFSET 0 0 0
		CHANNELS 3 Zrotation Yrotation Xrotation
		JOINT Spine
		{
			OFFSET 0.00000 4.68130 0.00000
			CHANNELS 3 Zrotation Yrotation Xrotation
			JOINT Spine1
			{
				OFFSET -0.00000 10.10138 0.05002
				CHANNELS 3 Zrotation Yrotation Xrotation
				JOINT HEadDummy
				{
					OFFSET 0 0 0
					CHANNELS 3 Zrotation Yrotation Xrotation
					JOINT Head
					{
						OFFSET -0.00000 3.43865 0.00438
						CHANNELS 3 Zrotation Yrotation Xrotation
						End Site
						{
							OFFSET -0.11417 5.02924 0.98962
						}
					}
				}
				JOINT LeftShoulder1Dummy
				{
					OFFSET 0 0 0
					CHANNELS 3 Zrotation Yrotation Xrotation
					JOINT LeftShoulder1
					{
						OFFSET 3.53937 -0.14262 -0.08662
						CHANNELS 3 Zrotation Yrotation Xrotation
						JOINT LeftArm
						{
							OFFSET 4.04833 -0.00133 0.12681
							CHANNELS 3 Zrotation Yrotation Xrotation
							JOINT LeftForeArm
							{
								OFFSET 10.33880 -0.01036 -0.55515
								CHANNELS 3 Zrotation Yrotation Xrotation
								JOINT LeftHand
								{
									OFFSET 8.69677 0.07543 0.40060
									CHANNELS 3 Zrotation Yrotation Xrotation
									End Site
									{
										OFFSET 5.28377 -0.21905 0.59205
									}
								}
							}
						}
					}
				}
				JOINT RightShoulderDummy
				{
					OFFSET 0 0 0
					CHANNELS 3 Zrotation Yrotation Xrotation
					JOINT RightShoulder
					{
						OFFSET -3.53937 -0.14262 -0.08660
						CHANNELS 3 Zrotation Yrotation Xrotation
						JOINT RightArm
						{
							OFFSET -4.04833 -0.00133 0.12683
							CHANNELS 3 Zrotation Yrotation Xrotation
							JOINT RightForeArm
							{
								OFFSET -10.37987 -0.01039 -0.55511
								CHANNELS 3 Zrotation Yrotation Xrotation
								JOINT RightHand
								{
									OFFSET -8.67398 0.07538 0.40058
									CHANNELS 3 Zrotation Yrotation Xrotation
									End Site
									{
										OFFSET -5.24810 -0.21916 0.59204
									}
								}
							}
						}
					}
				}
			}
		}
	}
	JOINT LeftUpLegDummy
	{
		OFFSET 0 0 0
		CHANNELS 3 Zrotation Yrotation Xrotation
		JOINT LeftUpLeg
		{
			OFFSET 3.52197 -3.41223 0.04002
			CHANNELS 3 Zrotation Yrotation Xrotation
			JOINT LeftLeg
			{
				OFFSET -0.00012 -17.42399 1.60337
				CHANNELS 3 Zrotation Yrotation Xrotation
				JOINT LeftFoot
				{
					OFFSET -0.09972 -16.50070 -1.63802
					CHANNELS 3 Zrotation Yrotation Xrotation
					JOINT LeftToes
					{
						OFFSET -0.01575 -1.73823 3.34611
						CHANNELS 3 Zrotation Yrotation Xrotation
						End Site
						{
							OFFSET 0.03150 -0.01868 3.85031
						}
					}
				}
			}
		}
	}
}
MOTION
Frames: 9
Frame Time: 0.033333
-0.5501 39.1150 37.4641 179.6950 2.9367 173.9960 0.0000 0.0000 0.0000 4.8139 -1.1145 7.0188 -2.2559 -4.2865 14.9726 -6.5171 -0.2713 -15.1246 0.0000 -0.0000 -0.0000 0.0000 0.0000 0.0000 1.8597 1.9001 9.4013 1.0587 1.8444 -2.0850 -0.0000 0.0000 -0.0000 1.3217 1.2110 -8.0643 -0.0000 0.0000 -0.0000 -34.2200 -2.5917 2.4536 -42.7497 -13.0062 -16.8051 -11.7330 5.3927 36.9154 13.7310 -4.3762 -1.1216 -0.0000 0.0000 -0.0000 33.2054 4.9056 3.2973 36.9540 13.5118 -9.4003 10.2109 10.4677 10.5629 -9.3159 2.2559 -0.5945 0.0000 0.0000 0.0000 0.7179 3.3437 -16.7780 -0.5235 2.9395 6.2565 -3.5550 0.3229 -1.1863 0.0000 0.0000 -0.0000
-0.5927 39.1548 36.4294 179.6710 3.2236 174.3940 0.0000 0.0000 0.0000 4.5681 -1.1965 9.0913 -2.0765 -4.2025 13.3230 -6.6789 -0.2812 -15.1963 0.0000 -0.0000 -0.0000 0.0000 0.0000 0.0000 1.7852 1.9219 8.7255 1.0366 1.8518 -1.8968 -0.0000 0.0000 -0.0000 1.4148 1.3412 -7.8674 -0.0000 0.0000 -0.0000 -34.4553 -2.5744 2.4612 -42.5156 -12.7110 -17.3873 -11.5051 5.3828 37.5147 13.6017 -4.3487 -1.1075 -0.0000 0.0000 -0.0000 33.3208 4.9333 3.3179 37.0266 14.0007 -8.9340 10.1446 10.6884 10.2965 -9.2962 2.2373 -0.5918 0.0000 0.0000 0.0000 1.3478 0.6793 -16.2799 -0.9560 5.5100 0.3326 -4.0267 0.3311 -2.3289 0.0000 0.0000 -0.0000
-0.6612 39.0733 35.3023 179.5630 3.4085 174.6580 0.0000 0.0000 0.0000 4.1460 -1.2838 10.5838 -2.0253 -4.1000 13.4966 -6.1838 -0.3064 -15.9392 0.0000 -0.0000 -0.0000 0.0000 0.0000 0.0000 1.7156 1.8825 8.0475 0.8623 1.8251 -1.6516 -0.0000 0.0000 -0.0000 1.4034 1.3793 -7.7020 -0.0000 0.0000 -0.0000 -34.6390 -2.5284 2.4538 -42.3514 -12.3454 -18.1664 -11.1492 5.3666 38.4525 13.5332 -4.4108 -1.1085 -0.0000 0.0000 -0.0000 33.5264 4.9657 3.3482 37.1656 14.1427 -9.8076 10.2900 10.1166 11.3672 -9.2359 2.1431 -0.5811 0.0000 0.0000 0.0000 0.8427 0.1432 -16.1629 -0.4848 8.0025 -1.4968 -4.4617 0.3225 -3.6348 0.0000 0.0000 -0.0000
-0.7590 38.9313 34.0927 179.5690 3.5814 174.7830 0.0000 0.0000 0.0000 3.5991 -1.5299 11.8032 -1.7967 -3.5848 14.7407 -4.9012 -0.2887 -16.6414 0.0000 -0.0000 -0.0000 0.0000 0.0000 0.0000 1.9169 1.8920 7.3771 0.5565 1.8787 -1.3103 -0.0000 0.0000 -0.0000 1.2645 1.2580 -7.6424 -0.0000 0.0000 -0.0000 -34.7753 -2.5071 2.4535 -42.3287 -12.0539 -19.0969 -10.6642 5.3445 39.6887 13.5742 -4.3918 -1.1099 -0.0000 0.0000 -0.0000 33.7273 4.9881 3.3742 37.4119 13.6767 -11.1928 10.4804 9.2284 12.7498 -9.3783 2.0568 -0.5841 0.0000 0.0000 0.0000 0.4150 -0.0182 -16.1019 -0.0452 10.3689 -0.0251 -4.6280 0.3221 -3.9758 0.0000 0.0000 -0.0000
-0.8850 38.8246 32.8179 179.5750 4.1561 174.7650 0.0000 0.0000 0.0000 2.8098 -1.7033 13.0280 -1.3100 -2.4856 16.3444 -3.2975 -0.2049 -16.3393 0.0000 -0.0000 -0.0000 0.0000 0.0000 0.0000 2.2674 2.1454 6.5918 0.2303 2.1844 -0.7414 -0.0000 0.0000 -0.0000 1.0388 1.1360 -7.6496 -0.0000 0.0000 -0.0000 -34.9734 -2.5210 2.4714 -42.4064 -11.6789 -20.1034 -10.1179 5.3221 40.9122 13.5628 -4.1757 -1.0853 -0.0000 0.0000 -0.0000 33.8553 5.0058 3.3923 37.7123 12.6052 -12.6847 10.7032 8.0879 13.9765 -9.8382 1.8983 -0.6014 0.0000 0.0000 0.0000 0.0094 -0.0082 -15.6881 0.4780 11.1121 2.6077 -3.8586 0.3084 -2.5843 0.0000 0.0000 -0.0000
-1.0356 38.7654 31.4848 179.3200 5.1517 174.6050 0.0000 0.0000 0.0000 1.4446 -1.9598 14.0007 -0.5772 -0.8382 18.7205 -1.4876 -0.1030 -15.0111 0.0000 -0.0000 -0.0000 0.0000 0.0000 0.0000 2.4170 2.5648 5.7111 -0.0682 2.6475 -0.0815 -0.0000 0.0000 -0.0000 0.8308 1.2008 -7.4792 -0.0000 0.0000 -0.0000 -35.2517 -2.5130 2.4851 -42.4779 -10.8845 -21.0956 -9.6133 5.3018 41.9806 13.3973 -3.9999 -1.0524 -0.0000 0.0000 -0.0000 34.0092 5.0364 3.4177 37.9546 11.1332 -14.3708 10.9322 6.3571 15.4782 -10.1406 1.6417 -0.6002 0.0000 0.0000 0.0000 -0.5648 -0.1921 -15.2121 1.0780 10.7636 5.6143 -2.6413 0.2597 -0.1731 0.0000 0.0000 -0.0000
-1.2019 38.7158 30.1264 178.7640 5.8556 174.3690 0.0000 0.0000 0.0000 -0.7887 -3.3297 14.2758 0.5918 1.4817 22.4244 1.0523 -0.0348 -12.7863 0.0000 -0.0000 -0.0000 0.0000 0.0000 0.0000 2.1371 2.7660 4.9973 -0.2940 2.8751 0.1961 -0.0000 0.0000 -0.0000 0.6833 1.3982 -6.9216 -0.0000 0.0000 -0.0000 -35.4203 -2.4459 2.4677 -42.5920 -9.6358 -21.9980 -9.1847 5.2794 43.0579 13.2182 -4.0430 -1.0424 -0.0000 0.0000 -0.0000 34.2246 5.0673 3.4488 38.2372 9.3000 -15.8595 10.9347 4.1653 17.3031 -9.9956 1.4502 -0.5763 0.0000 0.0000 0.0000 -1.3874 -0.4062 -14.7042 1.3832 10.1705 8.5003 -2.3404 0.2644 2.0953 0.0000 0.0000 -0.0000
-1.3755 38.6290 28.8353 178.0780 5.7169 174.1140 0.0000 0.0000 0.0000 -3.5732 -5.6541 13.2482 2.2514 3.6554 28.2412 4.5992 -0.1414 -8.8393 0.0000 -0.0000 -0.0000 0.0000 0.0000 0.0000 1.4068 2.5534 4.9062 -0.2799 2.6511 -0.2697 -0.0000 0.0000 -0.0000 0.4694 1.4924 -6.1867 -0.0000 0.0000 -0.0000 -35.3016 -2.3646 2.4269 -42.9509 -8.4193 -22.8002 -8.7505 5.2526 44.2696 13.1558 -4.0474 -1.0377 -0.0000 0.0000 -0.0000 34.3259 5.0628 3.4557 38.7419 7.0159 -16.9399 10.6447 2.2447 19.0563 -9.8208 1.4505 -0.5659 0.0000 0.0000 0.0000 -2.3704 -0.3595 -14.1866 1.1583 9.5091 11.3556 -2.5202 0.2977 3.0031 0.0000 0.0000 -0.0000
-1.5431 38.4928 27.6844 177.3670 5.1972 173.7260 0.0000 0.0000 0.0000 -6.0860 -7.3530 10.6416 3.6898 4.3894 36.3068 8.5891 -0.7244 -1.9936 0.0000 -0.0000 -0.0000 0.0000 0.0000 0.0000 0.3539 2.2126 5.7187 0.1358 2.2461 -1.2088 -0.0000 0.0000 -0.0000 0.0270 1.4421 -5.8895 -0.0000 0.0000 -0.0000 -35.0285 -2.3311 2.3968 -43.5580 -7.7851 -23.4437 -8.2995 5.2283 45.3582 13.1044 -3.7659 -1.0038 -0.0000 0.0000 -0.0000 34.2434 5.0286 3.4348 39.2870 4.5231 -18.0598 10.2964 1.0596 20.3741 -9.9303 1.4661 -0.5736 0.0000 0.0000 0.0000 -3.4652 -0.1405 -13.7573 0.7829 8.7784 14.6513 -1.4314 0.1583 1.9072 0.0000 0.0000 -0.0000
